<?xml version="1.0" encoding="UTF-8" standalone="no"?>
<svg
   width="47"
   height="69"
   viewBox="0 0 47 69"
   fill="none"
   version="1.1"
   id="svg6"
   xmlns="http://www.w3.org/2000/svg"
   xmlns:svg="http://www.w3.org/2000/svg">
  <defs
     id="defs10" />
  <path
     d="M23.5 53.3182C27.8262 53.3182 31.3333 49.8077 31.3333 45.4773C31.3333 41.1469 27.8262 37.6364 23.5 37.6364C19.1738 37.6364 15.6667 41.1469 15.6667 45.4773C15.6667 49.8077 19.1738 53.3182 23.5 53.3182Z"
     fill="#939393"
     id="path2" />
  <path
     fill-rule="evenodd"
     clip-rule="evenodd"
     d="M6.26667 29.4847V15.6818H6.33692C7.12845 6.88981 14.5104 0 23.5 0C32.4896 0 39.8716 6.88981 40.6631 15.6818H40.7333V29.4847C44.6223 33.6816 47 39.3015 47 45.4773C47 58.4685 36.4787 69 23.5 69C10.5213 69 0 58.4685 0 45.4773C0 39.3015 2.37765 33.6816 6.26667 29.4847ZM34.4667 24.6676C31.1928 22.9354 27.4608 21.9545 23.5 21.9545C19.5392 21.9545 15.8072 22.9354 12.5333 24.6676V16.2521H12.578C13.0817 10.6571 17.7793 6.27273 23.5 6.27273C29.2207 6.27273 33.9183 10.6571 34.422 16.2521H34.4667V24.6676ZM34.5277 58.7337C31.9155 60.9132 28.6492 62.3338 25.0667 62.657V56.4545H21.9333V62.657C18.3508 62.3338 15.0843 60.9132 12.4722 58.7336L15.3112 55.8918L13.0956 53.674L10.2566 56.5158C8.07902 53.9011 6.65977 50.6315 6.33692 47.0455H12.5333V43.9091H6.33692C6.65976 40.3231 8.07896 37.0536 10.2564 34.4389L12.7603 36.9452L14.9759 34.7274L12.472 32.2211C15.0842 30.0414 18.3507 28.6208 21.9333 28.2976V34.5H25.0667V28.2976C28.6494 28.6208 31.9159 30.0415 34.5281 32.2212L32.0945 34.6571L34.3101 36.8749L36.7436 34.439C38.9211 37.0536 40.3402 40.3232 40.6631 43.9091H34.4667V47.0455H40.6631C40.3402 50.6316 38.9209 53.9012 36.7433 56.516L34.3185 54.0888L32.1029 56.3066L34.5277 58.7337Z"
     fill="#939393"
     id="path4" />
</svg>
