<svg width="56" height="56" viewBox="0 0 56 56" fill="none" xmlns="http://www.w3.org/2000/svg">
<path d="M29.5613 0.285706C29.5468 0.577528 29.5534 0.874055 29.5827 1.1736L31.6357 22.2148C31.9575 25.5128 34.8922 27.9282 38.1906 27.6096L56 25.8896V54C56 55.1046 55.1046 56 54 56H2C0.89543 56 0 55.1046 0 54V2.28571C0 1.18114 0.895431 0.285706 2 0.285706H29.5613Z" fill="#939393"/>
<path d="M34.6111 2.00686C34.4497 2.20234 34.3622 2.45898 34.3864 2.73156L35.7543 18.1044C35.9991 20.855 38.4275 22.8884 41.1782 22.6461L55.1189 21.4185C55.4041 21.3934 55.6507 21.2509 55.8152 21.0428L34.6111 2.00686Z" fill="#939393"/>
</svg>
