<svg width="56" height="54" viewBox="0 0 56 54" fill="none" xmlns="http://www.w3.org/2000/svg">
<path fill-rule="evenodd" clip-rule="evenodd" d="M42.8488 21.6699C42.8488 25.3852 41.9243 28.8822 40.2954 31.9383L54.8127 45.5663C56.0207 46.7003 56.0919 48.6092 54.9717 49.83L52.2561 52.7896C51.1359 54.0104 49.2485 54.0807 48.0405 52.9467L33.6681 39.4547C30.1977 41.9036 25.9768 43.3398 21.4244 43.3398C9.59202 43.3398 0 33.6378 0 21.6699C0 9.70194 9.59202 0 21.4244 0C33.2567 0 42.8488 9.70194 42.8488 21.6699ZM21.4244 37.7675C30.2141 37.7675 37.3396 30.5604 37.3396 21.6699C37.3396 12.7794 30.2141 5.57225 21.4244 5.57225C12.6346 5.57225 5.50913 12.7794 5.50913 21.6699C5.50913 30.5604 12.6346 37.7675 21.4244 37.7675Z" fill="#939393"/>
</svg>
