<svg width="55" height="60" viewBox="0 0 55 60" fill="none" xmlns="http://www.w3.org/2000/svg">
<path d="M55 52C55 56.4183 51.4183 60 47 60C42.5817 60 39 56.4183 39 52C39 47.5817 42.5817 44 47 44C51.4183 44 55 47.5817 55 52Z" fill="#939393"/>
<path d="M34.3479 49H3C1.34315 49 0 50.3431 0 52C0 53.6569 1.34315 55 3 55H34.3479C34.1204 54.037 34 53.0325 34 52C34 50.9675 34.1204 49.963 34.3479 49Z" fill="#939393"/>
<path d="M35 30C35 34.4183 31.4183 38 27 38C22.5817 38 19 34.4183 19 30C19 25.5817 22.5817 22 27 22C31.4183 22 35 25.5817 35 30Z" fill="#939393"/>
<path d="M39.6521 33C39.8796 32.037 40 31.0325 40 30C40 28.9675 39.8796 27.963 39.6521 27H52C53.6569 27 55 28.3431 55 30C55 31.6569 53.6569 33 52 33H39.6521Z" fill="#939393"/>
<path d="M14.3479 33H3C1.34315 33 0 31.6569 0 30C0 28.3431 1.34315 27 3 27H14.3479C14.1204 27.963 14 28.9675 14 30C14 31.0325 14.1204 32.037 14.3479 33Z" fill="#939393"/>
<path d="M16 8C16 12.4183 12.4183 16 8 16C3.58172 16 0 12.4183 0 8C0 3.58172 3.58172 0 8 0C12.4183 0 16 3.58172 16 8Z" fill="#939393"/>
<path d="M20.652 11C20.8795 10.037 20.9999 9.03254 20.9999 8C20.9999 6.96746 20.8795 5.96304 20.652 5H51.9999C53.6568 5 54.9999 6.34315 54.9999 8C54.9999 9.65685 53.6568 11 51.9999 11H20.652Z" fill="#939393"/>
</svg>
